<svg width="16" height="16" viewBox="0 0 16 16" fill="none" xmlns="http://www.w3.org/2000/svg">
<path d="M5 9L4.41421 9.58579C3.63317 10.3668 3.63316 11.6332 4.41421 12.4142L6.58579 14.5858C7.36684 15.3668 8.63316 15.3668 9.41421 14.5858L10 14L5 9Z" fill="#18181B"/>
<path d="M5 3L4.41421 3.58579C3.63317 4.36683 3.63316 5.63316 4.41421 6.41421L11 13L11.5858 12.4142C12.3668 11.6332 12.3668 10.3668 11.5858 9.58579L5 3Z" fill="#18181B"/>
<path d="M6.58579 1.41421L6 2L11 7L11.5858 6.41421C12.3668 5.63317 12.3668 4.36684 11.5858 3.58579L9.41421 1.41421C8.63317 0.633165 7.36684 0.633165 6.58579 1.41421Z" fill="#18181B"/>
</svg>
